<svg width="16" height="16" viewBox="0 0 16 16" fill="none" xmlns="http://www.w3.org/2000/svg">
<g clip-path="url(#clip0_1_1700)">
<path d="M14.5009 2H1.50092C0.672478 2 0.000915527 2.67156 0.000915527 3.5V12.5C0.000915527 13.3284 0.672478 14 1.50092 14H14.5009C15.3294 14 16.0009 13.3284 16.0009 12.5V3.5C16.0009 2.67156 15.3294 2 14.5009 2ZM14.3134 12.5H1.68842C1.63869 12.5 1.591 12.4802 1.55583 12.4451C1.52067 12.4099 1.50092 12.3622 1.50092 12.3125V3.6875C1.50092 3.63777 1.52067 3.59008 1.55583 3.55492C1.591 3.51975 1.63869 3.5 1.68842 3.5H14.3134C14.3631 3.5 14.4108 3.51975 14.446 3.55492C14.4812 3.59008 14.5009 3.63777 14.5009 3.6875V12.3125C14.5009 12.3622 14.4812 12.4099 14.446 12.4451C14.4108 12.4802 14.3631 12.5 14.3134 12.5ZM4.00092 4.75C3.31057 4.75 2.75092 5.30966 2.75092 6C2.75092 6.69034 3.31057 7.25 4.00092 7.25C4.69126 7.25 5.25092 6.69034 5.25092 6C5.25092 5.30966 4.69126 4.75 4.00092 4.75ZM3.00092 11H13.0009V8.5L10.2661 5.76516C10.1196 5.61872 9.8822 5.61872 9.73573 5.76516L6.00092 9.5L4.76607 8.26516C4.61963 8.11872 4.3822 8.11872 4.23573 8.26516L3.00092 9.5V11Z" fill="#F77270"/>
</g>
<defs>
<clipPath id="clip0_1_1700">
<rect width="16" height="16" fill="white" transform="translate(0.000915527)"/>
</clipPath>
</defs>
</svg>
