<svg width="20" height="20" viewBox="0 0 20 20" fill="none" xmlns="http://www.w3.org/2000/svg">
<path fill-rule="evenodd" clip-rule="evenodd" d="M0.833344 8.74992C0.833344 4.37768 4.37777 0.833252 8.75001 0.833252C13.1222 0.833252 16.6667 4.37768 16.6667 8.74992C16.6667 10.6359 16.0072 12.3678 14.9063 13.7277L17.9672 16.7886C18.2927 17.1141 18.2927 17.6417 17.9672 17.9671C17.6418 18.2926 17.1141 18.2926 16.7887 17.9671L13.7278 14.9062C12.3679 16.0071 10.636 16.6666 8.75001 16.6666C4.37777 16.6666 0.833344 13.1222 0.833344 8.74992ZM8.75001 2.49992C5.29825 2.49992 2.50001 5.29816 2.50001 8.74992C2.50001 12.2017 5.29825 14.9999 8.75001 14.9999C12.2018 14.9999 15 12.2017 15 8.74992C15 5.29816 12.2018 2.49992 8.75001 2.49992ZM5.80373 5.38693C6.55687 4.63385 7.59967 4.16659 8.75001 4.16659C9.90035 4.16659 10.9432 4.63385 11.6963 5.38695C12.0217 5.71239 12.0217 6.24003 11.6963 6.56547C11.3708 6.8909 10.8432 6.8909 10.5178 6.56547C10.0644 6.11215 9.44059 5.83325 8.75001 5.83325C8.05944 5.83325 7.43557 6.11215 6.9822 6.56549C6.65676 6.89091 6.12912 6.89089 5.80369 6.56545C5.47827 6.24 5.47828 5.71236 5.80373 5.38693Z" fill="#7B7B7B"/>
</svg>
