<svg width="20" height="20" viewBox="0 0 20 20" fill="none" xmlns="http://www.w3.org/2000/svg">
<path d="M13.75 10.0002V4.5835C13.75 2.51243 12.071 0.833496 9.99996 0.833496C7.92888 0.833496 6.24996 2.51243 6.24996 4.5835V10.0002C6.24996 12.0712 7.92888 13.7502 9.99996 13.7502C12.071 13.7502 13.75 12.0712 13.75 10.0002Z" fill="#F77270"/>
<path d="M3.74996 8.75016C4.2102 8.75016 4.58329 9.12326 4.58329 9.5835C4.58329 12.575 7.00841 15.0002 9.99996 15.0002C12.9915 15.0002 15.4166 12.575 15.4166 9.5835C15.4166 9.12326 15.7897 8.75016 16.25 8.75016C16.7102 8.75016 17.0833 9.12326 17.0833 9.5835C17.0833 13.2136 14.3526 16.2059 10.8333 16.6183V18.3335C10.8333 18.7937 10.4602 19.1668 9.99996 19.1668C9.53972 19.1668 9.16663 18.7937 9.16663 18.3335V16.6183C5.64731 16.2059 2.91663 13.2136 2.91663 9.5835C2.91663 9.12326 3.28972 8.75016 3.74996 8.75016Z" fill="#F77270"/>
</svg>
